<svg width="24" height="19" viewBox="0 0 24 19" fill="none" xmlns="http://www.w3.org/2000/svg">
<path d="M8.9995 9.5C10.1929 9.5 11.3374 8.99955 12.1813 8.10876C13.0252 7.21796 13.4992 6.00978 13.4992 4.75C13.4992 3.49022 13.0252 2.28204 12.1813 1.39124C11.3374 0.500445 10.1929 0 8.9995 0C7.80609 0 6.66156 0.500445 5.81769 1.39124C4.97383 2.28204 4.49975 3.49022 4.49975 4.75C4.49975 6.00978 4.97383 7.21796 5.81769 8.10876C6.66156 8.99955 7.80609 9.5 8.9995 9.5ZM11.9993 4.75C11.9993 5.58985 11.6833 6.39531 11.1207 6.98917C10.5581 7.58304 9.7951 7.91667 8.9995 7.91667C8.20389 7.91667 7.44087 7.58304 6.8783 6.98917C6.31572 6.39531 5.99966 5.58985 5.99966 4.75C5.99966 3.91015 6.31572 3.10469 6.8783 2.51083C7.44087 1.91696 8.20389 1.58333 8.9995 1.58333C9.7951 1.58333 10.5581 1.91696 11.1207 2.51083C11.6833 3.10469 11.9993 3.91015 11.9993 4.75ZM17.999 17.4167C17.999 19 16.4991 19 16.4991 19H1.49992C1.49992 19 0 19 0 17.4167C0 15.8333 1.49992 11.0833 8.9995 11.0833C16.4991 11.0833 17.999 15.8333 17.999 17.4167ZM16.4991 17.4103C16.4976 17.0208 16.2681 15.8492 15.2511 14.7757C14.2732 13.7433 12.4328 12.6667 8.9995 12.6667C5.56469 12.6667 3.72579 13.7433 2.74785 14.7757C1.7309 15.8492 1.50292 17.0208 1.49992 17.4103H16.4991Z" fill="black"/>
<path fill-rule="evenodd" clip-rule="evenodd" d="M23.7797 4.98117C23.8495 5.05471 23.9049 5.14207 23.9427 5.23825C23.9805 5.33443 24 5.43754 24 5.54167C24 5.6458 23.9805 5.74891 23.9427 5.84509C23.9049 5.94127 23.8495 6.02863 23.7797 6.10217L19.2799 10.8522C19.2103 10.9259 19.1275 10.9844 19.0364 11.0243C18.9453 11.0642 18.8476 11.0847 18.749 11.0847C18.6503 11.0847 18.5526 11.0642 18.4615 11.0243C18.3704 10.9844 18.2876 10.9259 18.218 10.8522L15.9681 8.47717C15.8273 8.32851 15.7482 8.12689 15.7482 7.91667C15.7482 7.70644 15.8273 7.50482 15.9681 7.35617C16.1089 7.20751 16.2999 7.124 16.4991 7.124C16.6982 7.124 16.8892 7.20751 17.03 7.35617L18.749 9.17225L22.7177 4.98117C22.7874 4.90744 22.8702 4.84895 22.9613 4.80904C23.0524 4.76913 23.1501 4.74859 23.2487 4.74859C23.3473 4.74859 23.445 4.76913 23.5361 4.80904C23.6272 4.84895 23.71 4.90744 23.7797 4.98117Z" fill="black"/>
</svg>
