<svg width="21" height="21" viewBox="0 0 21 21" fill="none" xmlns="http://www.w3.org/2000/svg">
<path d="M10.5 0C4.70156 0 0 4.70156 0 10.5C0 16.2984 4.70156 21 10.5 21C16.2984 21 21 16.2984 21 10.5C21 4.70156 16.2984 0 10.5 0ZM10.5 19.2188C5.68594 19.2188 1.78125 15.3141 1.78125 10.5C1.78125 5.68594 5.68594 1.78125 10.5 1.78125C15.3141 1.78125 19.2188 5.68594 19.2188 10.5C19.2188 15.3141 15.3141 19.2188 10.5 19.2188ZM13.2586 5.42344C12.8859 5.34141 12.4523 5.29688 11.9625 5.29688C9.46172 5.29688 7.76953 6.60234 7.30781 8.81016H6.5625C6.45937 8.81016 6.375 8.89453 6.375 8.99766V9.63516C6.375 9.73828 6.45937 9.82266 6.5625 9.82266H7.18125C7.17422 9.91875 7.17422 10.0195 7.17422 10.1227V10.9875H6.5625C6.45937 10.9875 6.375 11.0719 6.375 11.175V11.8125C6.375 11.9156 6.45937 12 6.5625 12H7.27031C7.67344 14.325 9.38906 15.7031 11.9625 15.7031C12.4523 15.7031 12.8859 15.6633 13.2586 15.5836C13.3453 15.5648 13.4086 15.4898 13.4086 15.4008V14.3977C13.4086 14.2805 13.3008 14.1914 13.1859 14.2148C12.8414 14.2805 12.4383 14.3109 11.9719 14.3109C10.3664 14.3109 9.28828 13.4531 8.92969 12H11.9906C12.0937 12 12.1781 11.9156 12.1781 11.8125V11.175C12.1781 11.0719 12.0937 10.9875 11.9906 10.9875H8.79375V10.1437C8.79375 10.0336 8.79375 9.92344 8.80078 9.82031H11.9859C12.0891 9.82031 12.1734 9.73594 12.1734 9.63281V8.99531C12.1734 8.89219 12.0891 8.80781 11.9859 8.80781H8.97891C9.38203 7.47422 10.4391 6.68906 11.9695 6.68906C12.4359 6.68906 12.8391 6.72422 13.1813 6.79219C13.2084 6.79773 13.2365 6.79718 13.2634 6.79058C13.2903 6.78398 13.3155 6.77148 13.337 6.754C13.3585 6.73651 13.3759 6.71447 13.3879 6.68946C13.3998 6.66446 13.4061 6.6371 13.4062 6.60938V5.60625C13.4062 5.51719 13.3453 5.44219 13.2586 5.42344Z" fill="black"/>
</svg>
