<svg width="21" height="22" viewBox="0 0 21 22" fill="none" xmlns="http://www.w3.org/2000/svg">
<path d="M8.80833 0.597592C9.28173 0.211662 9.8809 0 10.5 0C11.1191 0 11.7183 0.211662 12.1917 0.597592L20.0667 7.02113C20.6582 7.50414 21 8.21398 21 8.96219V20.0251C21 20.5489 20.7849 21.0512 20.402 21.4216C20.0191 21.7919 19.4998 22 18.9583 22H14.875C14.3335 22 13.8142 21.7919 13.4313 21.4216C13.0484 21.0512 12.8333 20.5489 12.8333 20.0251V13.8182C12.8333 13.7434 12.8026 13.6716 12.7479 13.6187C12.6932 13.5658 12.619 13.5361 12.5417 13.5361H8.45833C8.38098 13.5361 8.30679 13.5658 8.25209 13.6187C8.1974 13.6716 8.16667 13.7434 8.16667 13.8182V20.0251C8.16667 20.5489 7.95156 21.0512 7.56868 21.4216C7.18579 21.7919 6.66648 22 6.125 22H2.04167C1.77355 22 1.50806 21.9489 1.26035 21.8497C1.01265 21.7504 0.787577 21.6049 0.59799 21.4216C0.408404 21.2382 0.258016 21.0205 0.155413 20.7809C0.0528094 20.5412 0 20.2844 0 20.0251V8.96219C0 8.21398 0.341833 7.50414 0.933333 7.02113L8.80833 0.597592ZM11.0635 1.89201C10.9058 1.76356 10.7062 1.69313 10.5 1.69313C10.2938 1.69313 10.0942 1.76356 9.9365 1.89201L2.0615 8.31442C1.96405 8.39377 1.88568 8.49275 1.83188 8.60444C1.77807 8.71614 1.75013 8.83784 1.75 8.96106V20.024C1.75 20.1797 1.88067 20.3061 2.04167 20.3061H6.125C6.20235 20.3061 6.27654 20.2764 6.33124 20.2235C6.38594 20.1705 6.41667 20.0988 6.41667 20.024V13.8171C6.41667 12.7258 7.33133 11.8422 8.45833 11.8422H12.5417C13.6687 11.8422 14.5833 12.7258 14.5833 13.8171V20.024C14.5833 20.1797 14.714 20.3061 14.875 20.3061H18.9583C19.0357 20.3061 19.1099 20.2764 19.1646 20.2235C19.2193 20.1705 19.25 20.0988 19.25 20.024V8.96219C19.2499 8.83897 19.2219 8.71726 19.1681 8.60557C19.1143 8.49388 19.036 8.3949 18.9385 8.31555L11.0635 1.89201Z" fill="black"/>
</svg>
