<svg width="23" height="29" viewBox="0 0 23 29" fill="none" xmlns="http://www.w3.org/2000/svg">
<path d="M16.75 9.30769H19.375C20.0712 9.30769 20.7389 9.58122 21.2312 10.0681C21.7234 10.555 22 11.2153 22 11.9038V25.4038C22 26.0924 21.7234 26.7527 21.2312 27.2396C20.7389 27.7265 20.0712 28 19.375 28H3.625C2.92881 28 2.26113 27.7265 1.76884 27.2396C1.27656 26.7527 1 26.0924 1 25.4038V11.9038C1 11.2153 1.27656 10.555 1.76884 10.0681C2.26113 9.58122 2.92881 9.30769 3.625 9.30769H6.25M6.25 15.5385L11.5 20.7308L16.75 15.5385M11.5 1V19.6923" stroke="white" stroke-width="2" stroke-linecap="round" stroke-linejoin="round"/>
</svg>
