<svg width="21" height="26" viewBox="0 0 21 26" fill="none" xmlns="http://www.w3.org/2000/svg">
<path d="M4.77273 14.8571H12.4091V16.7143H4.77273V14.8571Z" fill="black"/>
<path d="M4.77273 10.2143H16.2273V12.0714H4.77273V10.2143Z" fill="black"/>
<path d="M4.77273 19.5H9.54545V21.3571H4.77273V19.5Z" fill="black"/>
<path d="M19.0909 2.78571H16.2273V1.85714C16.2273 1.3646 16.0261 0.892226 15.6681 0.543944C15.3101 0.195663 14.8245 0 14.3182 0H6.68182C6.1755 0 5.68991 0.195663 5.33189 0.543944C4.97386 0.892226 4.77273 1.3646 4.77273 1.85714V2.78571H1.90909C1.40277 2.78571 0.917184 2.98138 0.55916 3.32966C0.201136 3.67794 0 4.15031 0 4.64286V24.1429C0 24.6354 0.201136 25.1078 0.55916 25.4561C0.917184 25.8043 1.40277 26 1.90909 26H19.0909C19.5972 26 20.0828 25.8043 20.4408 25.4561C20.7989 25.1078 21 24.6354 21 24.1429V4.64286C21 4.15031 20.7989 3.67794 20.4408 3.32966C20.0828 2.98138 19.5972 2.78571 19.0909 2.78571ZM6.68182 1.85714H14.3182V5.57143H6.68182V1.85714ZM19.0909 24.1429H1.90909V4.64286H4.77273V7.42857H16.2273V4.64286H19.0909V24.1429Z" fill="black"/>
</svg>
